<svg width="1963" height="535" viewBox="0 0 1963 535" fill="none" xmlns="http://www.w3.org/2000/svg">
<path d="M327.864 233.047C323.192 237.74 319.614 243.405 317.385 249.635C315.156 255.867 314.332 262.513 314.969 269.099L314.747 268.877C315.403 276.631 314.355 284.432 311.678 291.739C309.002 299.046 304.761 305.681 299.251 311.183C293.741 316.684 287.094 320.919 279.775 323.59C272.457 326.262 264.642 327.309 256.877 326.654L257.099 326.875C247.811 326.013 238.482 328.03 230.384 332.654C222.286 337.279 215.814 344.283 211.85 352.715C207.887 361.146 206.623 370.592 208.233 379.767C209.845 388.94 214.25 397.395 220.849 403.978C227.448 410.56 235.92 414.951 245.11 416.55C254.301 418.15 263.76 416.879 272.202 412.915C280.643 408.949 287.653 402.482 292.277 394.393C296.902 386.304 298.915 376.989 298.042 367.715L298.276 367.937C297.62 360.185 298.667 352.382 301.344 345.075C304.02 337.769 308.262 331.133 313.772 325.631C319.283 320.13 325.929 315.895 333.247 313.224C340.566 310.552 348.38 309.506 356.146 310.16L355.912 309.939C363.498 310.619 371.136 309.378 378.115 306.327C385.093 303.277 391.188 298.518 395.833 292.49C400.479 286.463 403.526 279.361 404.69 271.845C405.855 264.328 405.101 256.64 402.497 249.491C399.893 242.344 395.524 235.968 389.795 230.955C384.066 225.941 377.162 222.453 369.723 220.814C362.284 219.174 354.55 219.435 347.24 221.573C339.929 223.712 333.278 227.658 327.901 233.047H327.864Z" fill="white"/>
<path d="M236.918 297.852L236.684 297.63C243.284 298.294 249.948 297.485 256.198 295.262C262.446 293.039 268.122 289.459 272.814 284.778C277.505 280.097 281.097 274.432 283.327 268.196C285.559 261.959 286.374 255.306 285.714 248.716L285.948 248.938C285.293 241.184 286.34 233.383 289.016 226.076C291.692 218.769 295.934 212.134 301.444 206.632C306.955 201.131 313.601 196.896 320.919 194.225C328.239 191.552 336.052 190.507 343.818 191.161L343.584 190.94C352.873 191.811 362.205 189.799 370.307 185.18C378.41 180.561 384.888 173.559 388.857 165.13C392.827 156.7 394.096 147.253 392.49 138.077C390.885 128.9 386.484 120.442 379.886 113.855C373.289 107.269 364.817 102.874 355.626 101.271C346.435 99.6684 336.973 100.935 328.529 104.899C320.086 108.862 313.073 115.33 308.447 123.419C303.82 131.508 301.805 140.825 302.678 150.1L302.456 149.866C303.113 157.619 302.068 165.422 299.393 172.73C296.717 180.037 292.475 186.674 286.966 192.177C281.455 197.677 274.807 201.913 267.488 204.584C260.167 207.255 252.352 208.298 244.587 207.642L244.809 207.876C238.209 207.213 231.543 208.021 225.295 210.244C219.047 212.466 213.371 216.048 208.679 220.729C203.987 225.41 200.396 231.074 198.164 237.311C195.934 243.548 195.119 250.2 195.779 256.79L195.557 256.569C196.21 264.321 195.161 272.122 192.484 279.428C189.807 286.733 185.566 293.369 180.056 298.87C174.546 304.37 167.901 308.605 160.583 311.278C153.265 313.95 145.452 314.998 137.687 314.345L137.909 314.567C128.62 313.695 119.288 315.707 111.185 320.326C103.083 324.945 96.6051 331.947 92.6352 340.377C88.6652 348.807 87.3964 358.254 89.0019 367.43C90.6074 376.606 95.0092 385.064 101.606 391.651C108.204 398.238 116.676 402.632 125.867 404.235C135.058 405.837 144.52 404.571 152.963 400.607C161.407 396.644 168.42 390.177 173.046 382.088C177.673 373.998 179.688 364.681 178.815 355.407L179.049 355.628C178.393 347.875 179.441 340.074 182.117 332.766C184.793 325.46 189.035 318.824 194.544 313.322C200.055 307.822 206.701 303.586 214.02 300.915C221.339 298.243 229.153 297.197 236.918 297.852Z" fill="white"/>
<path d="M154.298 273.148C158.971 268.456 162.548 262.792 164.775 256.56C167.002 250.328 167.824 243.681 167.181 237.096L167.415 237.318C166.759 229.564 167.807 221.759 170.485 214.45C173.162 207.141 177.406 200.504 182.919 195.002C188.433 189.501 195.081 185.267 202.403 182.596C209.725 179.926 217.542 178.883 225.309 179.542L225.075 179.32C234.361 180.189 243.69 178.176 251.788 173.558C259.887 168.939 266.36 161.939 270.329 153.512C274.296 145.085 275.564 135.641 273.958 126.468C272.353 117.295 267.952 108.84 261.358 102.256C254.763 95.6716 246.294 91.2784 237.106 89.6756C227.919 88.0727 218.46 89.3382 210.02 93.2994C201.578 97.2605 194.567 103.725 189.942 111.81C185.315 119.896 183.299 129.209 184.17 138.48L183.948 138.259C184.603 146.011 183.556 153.813 180.879 161.12C178.203 168.427 173.962 175.063 168.452 180.564C162.941 186.065 156.295 190.3 148.976 192.971C141.658 195.644 133.843 196.69 126.078 196.035L126.3 196.257C118.713 195.577 111.076 196.822 104.099 199.873C97.1212 202.924 91.0279 207.685 86.3836 213.714C81.7394 219.741 78.6945 226.843 77.531 234.359C76.3675 241.876 77.1231 249.564 79.7278 256.71C82.3324 263.858 86.7019 270.232 92.4313 275.244C98.1607 280.258 105.065 283.745 112.503 285.384C119.942 287.022 127.675 286.76 134.985 284.622C142.295 282.483 148.946 278.537 154.322 273.148H154.298Z" fill="white"/>
<path d="M611.822 199.921C610.853 190.147 606.693 182.554 599.343 177.143C591.992 171.731 582.017 169.025 569.416 169.025C560.854 169.025 553.625 170.236 547.728 172.66C541.832 175.002 537.308 178.273 534.158 182.474C531.089 186.674 529.554 191.44 529.554 196.771C529.393 201.213 530.321 205.09 532.341 208.402C534.441 211.714 537.308 214.581 540.943 217.004C544.578 219.347 548.778 221.407 553.544 223.184C558.31 224.88 563.398 226.334 568.81 227.545L591.104 232.876C601.927 235.3 611.862 238.531 620.909 242.569C629.956 246.608 637.791 251.575 644.414 257.472C651.038 263.368 656.167 270.315 659.802 278.312C663.517 286.308 665.415 295.476 665.496 305.815C665.415 321 661.538 334.166 653.865 345.313C646.272 356.379 635.287 364.982 620.909 371.12C606.612 377.178 589.367 380.207 569.174 380.207C549.142 380.207 531.695 377.138 516.832 370.999C502.051 364.86 490.5 355.773 482.18 343.738C473.942 331.622 469.62 316.639 469.216 298.788H519.982C520.548 307.107 522.931 314.054 527.131 319.627C531.412 325.12 537.106 329.28 544.215 332.107C551.403 334.853 559.521 336.226 568.568 336.226C577.453 336.226 585.167 334.934 591.709 332.349C598.333 329.764 603.462 326.17 607.097 321.566C610.732 316.962 612.549 311.671 612.549 305.694C612.549 300.12 610.893 295.436 607.581 291.639C604.35 287.843 599.585 284.612 593.284 281.946C587.065 279.281 579.432 276.858 570.385 274.677L543.366 267.892C522.446 262.803 505.928 254.847 493.812 244.023C481.696 233.199 475.678 218.62 475.759 200.284C475.678 185.26 479.676 172.135 487.754 160.907C495.912 149.68 507.099 140.916 521.315 134.615C535.531 128.315 551.686 125.165 569.779 125.165C588.196 125.165 604.27 128.315 618.001 134.615C631.814 140.916 642.556 149.68 650.23 160.907C657.903 172.135 661.861 185.139 662.104 199.921H611.822Z" fill="white"/>
<path d="M731.68 446.482C725.137 446.482 718.998 445.957 713.263 444.907C707.609 443.938 702.925 442.686 699.209 441.151L710.84 402.622C716.898 404.48 722.351 405.489 727.197 405.651C732.124 405.813 736.365 404.682 739.919 402.259C743.554 399.835 746.502 395.716 748.763 389.9L751.792 382.025L685.033 190.591H739.313L777.842 327.26H779.781L818.673 190.591H873.316L800.984 396.806C797.51 406.822 792.785 415.546 786.808 422.977C780.911 430.489 773.44 436.264 764.393 440.303C755.347 444.422 744.442 446.482 731.68 446.482Z" fill="white"/>
<path d="M951.344 269.103V376.694H899.729V190.591H948.92V223.426H951.101C955.221 212.602 962.127 204.04 971.82 197.74C981.513 191.359 993.265 188.168 1007.08 188.168C1020 188.168 1031.27 190.995 1040.88 196.649C1050.49 202.304 1057.96 210.381 1063.3 220.882C1068.63 231.301 1071.29 243.74 1071.29 258.199V376.694H1019.68V267.407C1019.76 256.018 1016.85 247.133 1010.95 240.752C1005.06 234.29 996.94 231.059 986.601 231.059C979.655 231.059 973.516 232.553 968.185 235.542C962.935 238.531 958.815 242.892 955.827 248.627C952.919 254.281 951.424 261.107 951.344 269.103Z" fill="white"/>
<path d="M1165.04 380.207C1153.17 380.207 1142.59 378.148 1133.3 374.028C1124.01 369.828 1116.66 363.649 1111.24 355.491C1105.91 347.252 1103.25 336.994 1103.25 324.716C1103.25 314.377 1105.15 305.694 1108.94 298.666C1112.74 291.639 1117.91 285.985 1124.45 281.704C1130.99 277.423 1138.43 274.192 1146.74 272.011C1155.15 269.83 1163.95 268.296 1173.16 267.407C1183.98 266.276 1192.71 265.226 1199.33 264.257C1205.95 263.207 1210.76 261.672 1213.75 259.653C1216.74 257.633 1218.23 254.645 1218.23 250.687V249.96C1218.23 242.287 1215.81 236.35 1210.96 232.149C1206.19 227.949 1199.41 225.849 1190.6 225.849C1181.32 225.849 1173.93 227.909 1168.43 232.028C1162.94 236.067 1159.31 241.156 1157.53 247.294L1109.79 243.417C1112.21 232.109 1116.98 222.335 1124.09 214.097C1131.2 205.777 1140.36 199.396 1151.59 194.953C1162.9 190.43 1175.98 188.168 1190.85 188.168C1201.19 188.168 1211.08 189.38 1220.53 191.803C1230.06 194.226 1238.5 197.982 1245.85 203.071C1253.29 208.16 1259.14 214.702 1263.42 222.699C1267.7 230.615 1269.84 240.106 1269.84 251.172V376.694H1220.9V350.887H1219.44C1216.45 356.702 1212.45 361.831 1207.45 366.274C1202.44 370.636 1196.42 374.069 1189.39 376.573C1182.37 378.996 1174.25 380.207 1165.04 380.207ZM1179.82 344.586C1187.41 344.586 1194.12 343.092 1199.93 340.103C1205.75 337.034 1210.31 332.914 1213.63 327.745C1216.94 322.575 1218.59 316.719 1218.59 310.177V290.428C1216.98 291.478 1214.76 292.447 1211.93 293.335C1209.18 294.143 1206.07 294.91 1202.6 295.637C1199.13 296.284 1195.65 296.889 1192.18 297.455C1188.71 297.939 1185.56 298.384 1182.73 298.788C1176.67 299.676 1171.38 301.09 1166.86 303.028C1162.33 304.967 1158.82 307.592 1156.32 310.904C1153.81 314.135 1152.56 318.173 1152.56 323.02C1152.56 330.047 1155.1 335.418 1160.19 339.134C1165.36 342.769 1171.91 344.586 1179.82 344.586Z" fill="white"/>
<path d="M1309.89 446.482V190.591H1360.77V221.851H1363.08C1365.34 216.843 1368.61 211.754 1372.89 206.585C1377.25 201.334 1382.91 196.973 1389.85 193.499C1396.88 189.945 1405.6 188.168 1416.02 188.168C1429.59 188.168 1442.11 191.722 1453.58 198.83C1465.05 205.858 1474.22 216.479 1481.09 230.695C1487.95 244.831 1491.39 262.561 1491.39 283.885C1491.39 304.644 1488.03 322.172 1481.33 336.468C1474.71 350.685 1465.66 361.468 1454.19 368.818C1442.8 376.088 1430.04 379.723 1415.9 379.723C1405.89 379.723 1397.37 378.067 1390.34 374.755C1383.39 371.443 1377.7 367.284 1373.25 362.276C1368.81 357.187 1365.42 352.058 1363.08 346.888H1361.5V446.482H1309.89ZM1360.41 283.643C1360.41 294.709 1361.95 304.361 1365.02 312.6C1368.08 320.839 1372.53 327.26 1378.34 331.864C1384.16 336.388 1391.23 338.649 1399.55 338.649C1407.95 338.649 1415.05 336.347 1420.87 331.743C1426.69 327.058 1431.09 320.596 1434.08 312.358C1437.15 304.038 1438.68 294.466 1438.68 283.643C1438.68 272.9 1437.19 263.449 1434.2 255.291C1431.21 247.133 1426.81 240.752 1420.99 236.148C1415.18 231.544 1408.03 229.242 1399.55 229.242C1391.15 229.242 1384.04 231.463 1378.22 235.905C1372.49 240.348 1368.08 246.648 1365.02 254.806C1361.95 262.965 1360.41 272.577 1360.41 283.643Z" fill="white"/>
<path d="M1680.64 243.66L1633.39 246.568C1632.58 242.529 1630.84 238.894 1628.18 235.663C1625.51 232.351 1622 229.726 1617.63 227.788C1613.35 225.768 1608.22 224.759 1602.25 224.759C1594.25 224.759 1587.51 226.455 1582.01 229.847C1576.52 233.159 1573.77 237.602 1573.77 243.175C1573.77 247.618 1575.55 251.374 1579.11 254.443C1582.66 257.512 1588.76 259.976 1597.4 261.834L1631.08 268.619C1649.18 272.334 1662.67 278.312 1671.55 286.55C1680.44 294.789 1684.88 305.613 1684.88 319.021C1684.88 331.218 1681.28 341.921 1674.1 351.129C1666.99 360.337 1657.21 367.526 1644.77 372.695C1632.42 377.784 1618.16 380.329 1602.01 380.329C1577.37 380.329 1557.74 375.199 1543.12 364.941C1528.58 354.602 1520.06 340.548 1517.56 322.777L1568.32 320.112C1569.86 327.624 1573.57 333.359 1579.47 337.317C1585.37 341.194 1592.92 343.132 1602.13 343.132C1611.17 343.132 1618.44 341.396 1623.94 337.922C1629.51 334.368 1632.34 329.805 1632.42 324.231C1632.34 319.546 1630.36 315.71 1626.48 312.721C1622.6 309.652 1616.63 307.309 1608.55 305.694L1576.32 299.272C1558.15 295.637 1544.62 289.337 1535.73 280.371C1526.93 271.405 1522.52 259.976 1522.52 246.083C1522.52 234.128 1525.75 223.83 1532.22 215.187C1538.76 206.544 1547.93 199.88 1559.72 195.196C1571.59 190.511 1585.49 188.168 1601.4 188.168C1624.9 188.168 1643.4 193.136 1656.89 203.071C1670.46 213.006 1678.38 226.536 1680.64 243.66Z" fill="white"/>
<path d="M1802.19 380.329C1783.05 380.329 1766.57 376.451 1752.76 368.697C1739.03 360.862 1728.45 349.796 1721.01 335.499C1713.58 321.121 1709.87 304.119 1709.87 284.491C1709.87 265.347 1713.58 248.546 1721.01 234.088C1728.45 219.63 1738.91 208.362 1752.4 200.284C1765.97 192.207 1781.88 188.168 1800.13 188.168C1812.41 188.168 1823.84 190.147 1834.42 194.105C1845.08 197.982 1854.37 203.838 1862.29 211.673C1870.28 219.508 1876.5 229.363 1880.95 241.236C1885.39 253.029 1887.61 266.842 1887.61 282.673V296.849H1730.47V264.863H1839.02C1839.02 257.432 1837.41 250.849 1834.18 245.114C1830.95 239.379 1826.46 234.896 1820.73 231.665C1815.08 228.353 1808.49 226.697 1800.98 226.697C1793.15 226.697 1786.2 228.515 1780.14 232.149C1774.16 235.703 1769.48 240.509 1766.09 246.568C1762.69 252.545 1760.96 259.209 1760.88 266.559V296.97C1760.88 306.178 1762.57 314.135 1765.97 320.839C1769.44 327.543 1774.33 332.713 1780.63 336.347C1786.93 339.982 1794.4 341.8 1803.04 341.8C1808.78 341.8 1814.03 340.992 1818.79 339.376C1823.56 337.761 1827.64 335.338 1831.03 332.107C1834.42 328.876 1837.01 324.918 1838.78 320.233L1886.52 323.383C1884.1 334.853 1879.13 344.869 1871.62 353.431C1864.19 361.912 1854.57 368.536 1842.78 373.301C1831.07 377.986 1817.54 380.329 1802.19 380.329Z" fill="white"/>
</svg>
