<svg width="3000" height="3000" viewBox="0 0 3000 3000" fill="none" xmlns="http://www.w3.org/2000/svg">
<path d="M2028.62 1377.74C2000.15 1406.34 1978.35 1440.85 1964.77 1478.82C1951.19 1516.79 1946.16 1557.29 1950.05 1597.42L1948.69 1596.07C1952.69 1643.31 1946.31 1690.85 1930 1735.38C1913.69 1779.9 1887.85 1820.33 1854.27 1853.86C1820.69 1887.38 1780.2 1913.18 1735.6 1929.46C1691 1945.74 1643.38 1952.12 1596.07 1948.13L1597.42 1949.48C1540.83 1944.22 1483.98 1956.51 1434.63 1984.69C1385.29 2012.87 1345.85 2055.55 1321.7 2106.93C1297.55 2158.3 1289.85 2215.86 1299.66 2271.77C1309.48 2327.66 1336.32 2379.18 1376.53 2419.29C1416.75 2459.4 1468.37 2486.16 1524.37 2495.9C1580.37 2505.65 1638.01 2497.91 1689.45 2473.75C1740.88 2449.59 1783.6 2410.18 1811.78 2360.89C1839.96 2311.6 1852.22 2254.84 1846.9 2198.33L1848.33 2199.68C1844.33 2152.45 1850.71 2104.9 1867.02 2060.37C1883.33 2015.85 1909.18 1975.42 1942.75 1941.89C1976.33 1908.38 2016.83 1882.57 2061.42 1866.29C2106.02 1850.01 2153.64 1843.64 2200.96 1847.63L2199.53 1846.28C2245.76 1850.42 2292.3 1842.86 2334.82 1824.27C2377.34 1805.68 2414.48 1776.68 2442.79 1739.95C2471.09 1703.22 2489.66 1659.95 2496.76 1614.15C2503.86 1568.35 2499.26 1521.5 2483.39 1477.94C2467.53 1434.39 2440.9 1395.54 2405.99 1364.99C2371.08 1334.44 2329.02 1313.19 2283.69 1303.2C2238.36 1293.21 2191.23 1294.8 2146.69 1307.82C2102.14 1320.86 2061.61 1344.91 2028.85 1377.74H2028.62Z" fill="white"/>
<path d="M1474.45 1772.62L1473.02 1771.27C1513.24 1775.32 1553.85 1770.39 1591.93 1756.84C1630 1743.3 1664.59 1721.48 1693.18 1692.96C1721.76 1664.43 1743.65 1629.92 1757.24 1591.92C1770.84 1553.91 1775.8 1513.37 1771.79 1473.22L1773.21 1474.57C1769.22 1427.32 1775.6 1379.79 1791.9 1335.26C1808.21 1290.74 1834.06 1250.31 1867.63 1216.78C1901.21 1183.26 1941.71 1157.45 1986.3 1141.18C2030.9 1124.89 2078.52 1118.52 2125.84 1122.51L2124.41 1121.16C2181.01 1126.47 2237.87 1114.21 2287.24 1086.07C2336.62 1057.92 2376.09 1015.26 2400.28 963.891C2424.47 912.525 2432.2 854.959 2422.42 799.045C2412.64 743.131 2385.82 691.591 2345.61 651.455C2305.42 611.32 2253.79 584.541 2197.79 574.774C2141.78 565.007 2084.13 572.725 2032.68 596.877C1981.23 621.028 1938.5 660.438 1910.3 709.73C1882.11 759.021 1869.83 815.794 1875.15 872.307L1873.8 870.882C1877.81 918.124 1871.44 965.671 1855.13 1010.2C1838.83 1054.73 1812.98 1095.17 1779.41 1128.7C1745.83 1162.22 1705.32 1188.03 1660.72 1204.3C1616.12 1220.58 1568.5 1226.94 1521.18 1222.94L1522.53 1224.36C1482.32 1220.32 1441.7 1225.25 1403.63 1238.79C1365.55 1252.33 1330.97 1274.16 1302.38 1302.68C1273.79 1331.2 1251.9 1365.72 1238.3 1403.72C1224.72 1441.72 1219.75 1482.26 1223.77 1522.42L1222.42 1521.07C1226.4 1568.3 1220.01 1615.84 1203.7 1660.36C1187.38 1704.88 1161.54 1745.31 1127.97 1778.83C1094.39 1812.34 1053.9 1838.15 1009.31 1854.44C964.717 1870.72 917.105 1877.1 869.793 1873.13L871.145 1874.48C814.542 1869.17 757.676 1881.42 708.305 1909.57C658.935 1937.72 619.462 1980.38 595.272 2031.75C571.081 2083.11 563.35 2140.68 573.133 2196.59C582.916 2252.51 609.738 2304.05 649.938 2344.18C690.139 2384.32 741.761 2411.1 797.766 2420.86C853.77 2430.63 911.428 2422.91 962.877 2398.76C1014.33 2374.61 1057.06 2335.2 1085.25 2285.91C1113.44 2236.61 1125.72 2179.84 1120.4 2123.33L1121.83 2124.68C1117.83 2077.44 1124.22 2029.9 1140.53 1985.37C1156.83 1940.85 1182.68 1900.42 1216.25 1866.89C1249.83 1833.37 1290.33 1807.57 1334.92 1791.29C1379.52 1775.01 1427.13 1768.63 1474.45 1772.62Z" fill="white"/>
<path d="M971.009 1622.09C999.482 1593.5 1021.28 1558.99 1034.85 1521.01C1048.42 1483.04 1053.43 1442.54 1049.51 1402.42L1050.94 1403.77C1046.94 1356.51 1053.32 1308.96 1069.64 1264.42C1085.96 1219.88 1111.82 1179.44 1145.41 1145.92C1179.01 1112.39 1219.52 1086.59 1264.14 1070.32C1308.75 1054.05 1356.39 1047.7 1403.71 1051.71L1402.29 1050.36C1458.87 1055.65 1515.71 1043.39 1565.06 1015.25C1614.41 987.103 1653.85 944.447 1678.04 893.098C1702.21 841.747 1709.93 784.202 1700.15 728.309C1690.37 672.416 1663.55 620.896 1623.37 580.774C1583.19 540.653 1531.58 513.884 1475.6 504.117C1419.62 494.349 1361.98 502.061 1310.55 526.198C1259.11 550.335 1216.39 589.723 1188.2 638.992C1160.01 688.26 1147.73 745.011 1153.03 801.504L1151.68 800.154C1155.67 847.393 1149.29 894.934 1132.98 939.458C1116.67 983.982 1090.83 1024.42 1057.25 1057.94C1023.68 1091.46 983.178 1117.26 938.582 1133.54C893.987 1149.83 846.37 1156.2 799.054 1152.21L800.406 1153.56C754.174 1149.42 707.642 1157 665.125 1175.6C622.607 1194.19 585.478 1223.2 557.178 1259.93C528.879 1296.66 510.325 1339.94 503.235 1385.73C496.146 1431.54 500.75 1478.38 516.621 1521.93C532.493 1565.48 559.118 1604.33 594.03 1634.87C628.941 1665.41 671.01 1686.66 716.337 1696.65C761.663 1706.64 808.782 1705.04 853.328 1692.01C897.872 1678.98 938.401 1654.93 971.158 1622.09H971.009Z" fill="white"/>
</svg>
